HIERARCHY
ROOT Hips
{
	OFFSET 0.00 0.00 0.00
	CHANNELS 6 Xposition Yposition Zposition Xrotation Yrotation Zrotation
	JOINT Spine
	{
		OFFSET 0.00000 1.92919 2.89379
		CHANNELS 3 Xrotation Yrotation Zrotation
		JOINT Spine1
		{
			OFFSET 0.00000 0.67000 3.79977
			CHANNELS 3 Xrotation Yrotation Zrotation
			JOINT Spine2
			{
				OFFSET 0.00000 0.33628 3.84370
				CHANNELS 3 Xrotation Yrotation Zrotation
				JOINT Spine3
				{
					OFFSET 0.00000 0.00000 3.85838
					CHANNELS 3 Xrotation Yrotation Zrotation
					JOINT Neck
					{
						OFFSET 0.00000 -1.44688 10.12826
						CHANNELS 3 Xrotation Yrotation Zrotation
						JOINT Head
						{
							OFFSET 0.00000 -0.92125 5.22468
							CHANNELS 3 Xrotation Yrotation Zrotation
							End Site
							{
								OFFSET 0.00000 0.00001 6.24576
							}
						}
					}
					JOINT RightShoulder
					{
						OFFSET -1.19724 -1.99539 6.46510
						CHANNELS 3 Xrotation Yrotation Zrotation
						JOINT RightArm
						{
							OFFSET -5.94629 0.00000 0.00000
							CHANNELS 3 Xrotation Yrotation Zrotation
							JOINT RightForeArm
							{
								OFFSET -11.02134 0.00000 0.00000
								CHANNELS 3 Xrotation Yrotation Zrotation
								JOINT RightHand
								{
									OFFSET -10.43440 0.00000 0.00000
									CHANNELS 3 Xrotation Yrotation Zrotation
									JOINT RightHandEnd
									{
										OFFSET -2.82937 0.00000 0.00000
										CHANNELS 3 Xrotation Yrotation Zrotation
										End Site
										{
											OFFSET -2.82937 0.00000 0.00000
										}
									}
									JOINT RightHandThumb1
									{
										OFFSET -1.13175 -1.88625 -0.75450
										CHANNELS 3 Yrotation Xrotation Zrotation
										End Site
										{
											OFFSET -2.73296 -0.73229 0.00000
										}
									}
								}
							}
						}
					}
					JOINT LeftShoulder
					{
						OFFSET 1.19724 -1.99539 6.46510
						CHANNELS 3 Xrotation Yrotation Zrotation
						JOINT LeftArm
						{
							OFFSET 5.94629 0.00000 0.00000
							CHANNELS 3 Xrotation Yrotation Zrotation
							JOINT LeftForeArm
							{
								OFFSET 11.02134 0.00000 0.00000
								CHANNELS 3 Xrotation Yrotation Zrotation
								JOINT LeftHand
								{
									OFFSET 10.43440 0.00000 0.00000
									CHANNELS 3 Xrotation Yrotation Zrotation
									JOINT LeftHandEnd
									{
										OFFSET 2.82937 0.00000 0.00000
										CHANNELS 3 Xrotation Yrotation Zrotation
										End Site
										{
											OFFSET 2.82937 0.00000 0.00000
										}
									}
									JOINT LeftHandThumb1
									{
										OFFSET 1.13175 -1.88625 -0.75450
										CHANNELS 3 Yrotation Xrotation Zrotation
										End Site
										{
											OFFSET 2.73296 -0.73229 0.00000
										}
									}
								}
							}
						}
					}
				}
			}
		}
	}
	JOINT RightUpLeg
	{
		OFFSET -3.55181 0.00000 -1.03761
		CHANNELS 3 Xrotation Yrotation Zrotation
		JOINT RightLeg
		{
			OFFSET 0.00001 0.00000 -15.86106
			CHANNELS 3 Xrotation Yrotation Zrotation
			JOINT RightFoot
			{
				OFFSET 0.00001 0.00000 -16.30493
				CHANNELS 3 Xrotation Yrotation Zrotation
				JOINT RightToeBase
				{
					OFFSET 0.00000 -5.76215 -2.09725
					CHANNELS 3 Xrotation Yrotation Zrotation
					End Site
					{
						OFFSET 0.00000 -2.87338 -0.00000
					}
				}
			}
		}
	}
	JOINT LeftUpLeg
	{
		OFFSET 3.55181 0.00000 -1.03761
		CHANNELS 3 Xrotation Yrotation Zrotation
		JOINT LeftLeg
		{
			OFFSET 0.00001 0.00000 -15.86106
			CHANNELS 3 Xrotation Yrotation Zrotation
			JOINT LeftFoot
			{
				OFFSET 0.00001 0.00000 -16.30493
				CHANNELS 3 Xrotation Yrotation Zrotation
				JOINT LeftToeBase
				{
					OFFSET 0.00000 -5.76215 -2.09725
					CHANNELS 3 Xrotation Yrotation Zrotation
					End Site
					{
						OFFSET 0.00000 -2.87338 -0.00000
					}
				}
			}
		}
	}
}
MOTION
Frames: 9
Frame Time: 0.008342
 -17.1591 -19.5891 36.1672 3.6587 -5.0393 93.4629 1.4467 3.1682 0.4196 -0.5896 0.3824 -0.0029 5.7906 0.2200 -1.7326 2.5514 0.0574 -0.6806 9.8135 -0.0451 2.5778 -0.3647 2.9727 5.8951 -0.1311 6.2499 -3.7200 -4.6301 -16.8575 8.1575 0.0000 0.0000 0.5412 -21.5112 10.2726 1.5937 0.0000 -0.0000 -0.0000 -0.0000 -0.0000 -0.0000 -0.9713 -9.3823 3.3953 17.2602 7.0531 -15.9550 -0.0000 -0.0000 -0.9686 -18.1961 0.0271 -3.1825 0.0000 0.0000 -0.0000 0.0000 -0.0000 -0.0000 6.4401 -0.1136 -34.5339 5.3987 0.0000 0.0000 -6.4328 0.4961 2.3648 -3.4063 0.0000 -0.0000 3.4139 4.4682 29.4902 10.2897 0.0000 0.0000 -3.9489 -5.9868 -9.5914 -10.9782 0.0000 -0.0000
 -17.1606 -19.5887 36.1672 3.6592 -5.0430 93.4630 1.4541 3.1696 0.4181 -0.5885 0.3835 -0.0004 5.7954 0.2221 -1.7287 2.5501 0.0592 -0.6814 9.7986 -0.0454 2.5747 -0.3090 2.9657 5.8923 -0.1329 6.2543 -3.7196 -4.6392 -16.8561 8.1640 0.0000 0.0000 0.5358 -21.5049 10.2786 1.6097 0.0000 0.0000 0.0000 0.0000 -0.0000 -0.0000 -0.9680 -9.3834 3.4006 17.2670 7.0431 -15.9615 -0.0000 -0.0000 -0.9697 -18.1957 0.0305 -3.1930 0.0000 0.0000 -0.0000 0.0000 -0.0000 -0.0000 6.4406 -0.1122 -34.5309 5.3999 0.0000 0.0000 -6.4322 0.4977 2.3625 -3.4069 0.0000 -0.0000 3.4144 4.4721 29.4667 10.2875 0.0000 0.0000 -3.9455 -5.9942 -9.5670 -10.9751 0.0000 -0.0000
 -17.1627 -19.5881 36.1672 3.6604 -5.0469 93.4623 1.4623 3.1724 0.4177 -0.5871 0.3841 0.0003 5.8021 0.2253 -1.7226 2.5480 0.0601 -0.6804 9.7811 -0.0429 2.5717 -0.2383 2.9545 5.8877 -0.1331 6.2623 -3.7209 -4.6524 -16.8554 8.1730 0.0000 0.0000 0.5308 -21.4965 10.2866 1.6301 0.0000 -0.0000 -0.0000 0.0000 -0.0000 -0.0000 -0.9645 -9.3831 3.4047 17.2724 7.0312 -15.9680 -0.0000 -0.0000 -0.9700 -18.1942 0.0332 -3.2028 -0.0000 0.0000 0.0000 0.0000 0.0000 0.0000 6.4398 -0.1092 -34.5254 5.4026 0.0000 0.0000 -6.4324 0.5007 2.3585 -3.4069 0.0000 -0.0000 3.4145 4.4786 29.4348 10.2836 0.0000 0.0000 -3.9398 -6.0034 -9.5328 -10.9729 0.0000 -0.0000
 -17.1653 -19.5871 36.1672 3.6628 -5.0509 93.4606 1.4718 3.1762 0.4170 -0.5860 0.3843 0.0008 5.8099 0.2305 -1.7139 2.5457 0.0611 -0.6794 9.7617 -0.0396 2.5691 -0.1545 2.9411 5.8821 -0.1331 6.2714 -3.7225 -4.6652 -16.8538 8.1853 0.0000 0.0000 0.5263 -21.4884 10.2964 1.6538 0.0000 -0.0000 0.0000 -0.0000 0.0000 0.0000 -0.9610 -9.3840 3.4102 17.2753 7.0195 -15.9773 -0.0000 -0.0000 -0.9696 -18.1924 0.0338 -3.2097 0.0000 -0.0000 -0.0000 0.0000 0.0000 0.0000 6.4374 -0.1038 -34.5177 5.4073 0.0000 0.0000 -6.4339 0.5055 2.3532 -3.4059 0.0000 -0.0000 3.4144 4.4885 29.3947 10.2777 0.0000 0.0000 -3.9313 -6.0138 -9.4891 -10.9723 0.0000 -0.0000
 -17.1684 -19.5858 36.1672 3.6665 -5.0546 93.4573 1.4810 3.1808 0.4163 -0.5845 0.3847 0.0012 5.8183 0.2376 -1.7026 2.5433 0.0616 -0.6786 9.7413 -0.0351 2.5678 -0.0606 2.9251 5.8755 -0.1331 6.2814 -3.7233 -4.6783 -16.8510 8.1994 0.0000 0.0000 0.5232 -21.4809 10.3072 1.6825 0.0000 0.0000 0.0000 -0.0000 0.0000 0.0000 -0.9562 -9.3855 3.4182 17.2748 7.0073 -15.9900 -0.0000 -0.0000 -0.9673 -18.1883 0.0327 -3.2141 -0.0000 -0.0000 -0.0000 -0.0000 0.0000 -0.0000 6.4329 -0.0958 -34.5061 5.4139 0.0000 0.0000 -6.4365 0.5123 2.3458 -3.4035 0.0000 -0.0000 3.4143 4.5020 29.3488 10.2688 0.0000 0.0000 -3.9200 -6.0251 -9.4376 -10.9734 0.0000 -0.0000
 -17.1718 -19.5842 36.1673 3.6705 -5.0577 93.4522 1.4908 3.1858 0.4152 -0.5830 0.3848 0.0019 5.8256 0.2452 -1.6900 2.5416 0.0625 -0.6772 9.7212 -0.0292 2.5675 0.0404 2.9076 5.8682 -0.1333 6.2927 -3.7232 -4.6891 -16.8478 8.2163 0.0000 0.0000 0.5203 -21.4772 10.3182 1.7197 -0.0000 0.0000 -0.0000 0.0000 0.0000 0.0000 -0.9522 -9.3887 3.4263 17.2723 6.9977 -16.0031 -0.0000 -0.0000 -0.9655 -18.1820 0.0261 -3.2145 0.0000 -0.0000 -0.0000 0.0000 -0.0000 0.0000 6.4257 -0.0862 -34.4918 5.4233 0.0000 0.0000 -6.4402 0.5204 2.3374 -3.4005 0.0000 -0.0000 3.4132 4.5174 29.2987 10.2587 0.0000 0.0000 -3.9070 -6.0372 -9.3799 -10.9761 0.0000 -0.0000
 -17.1756 -19.5823 36.1674 3.6750 -5.0601 93.4462 1.4997 3.1907 0.4139 -0.5820 0.3854 0.0026 5.8343 0.2541 -1.6758 2.5392 0.0625 -0.6764 9.7023 -0.0223 2.5687 0.1442 2.8898 5.8600 -0.1321 6.3039 -3.7232 -4.7019 -16.8437 8.2346 0.0000 0.0000 0.5223 -21.4746 10.3314 1.7561 0.0000 0.0000 0.0000 0.0000 -0.0000 -0.0000 -0.9478 -9.3933 3.4363 17.2676 6.9896 -16.0189 -0.0000 -0.0000 -0.9611 -18.1754 0.0184 -3.2157 0.0000 -0.0000 0.0000 -0.0000 -0.0000 -0.0000 6.4159 -0.0747 -34.4737 5.4351 0.0000 0.0000 -6.4445 0.5297 2.3263 -3.3966 0.0000 -0.0000 3.4113 4.5349 29.2434 10.2466 0.0000 0.0000 -3.8920 -6.0496 -9.3162 -10.9803 0.0000 -0.0000
 -17.1801 -19.5798 36.1675 3.6817 -5.0552 93.4383 1.5016 3.1984 0.4124 -0.5797 0.3853 0.0040 5.8408 0.2624 -1.6617 2.5382 0.0633 -0.6752 9.6851 -0.0142 2.5717 0.2468 2.8722 5.8511 -0.1321 6.3154 -3.7207 -4.7140 -16.8397 8.2519 0.0000 0.0000 0.5280 -21.4765 10.3472 1.7990 -0.0000 0.0000 0.0000 -0.0000 -0.0000 0.0000 -0.9464 -9.3981 3.4454 17.2633 6.9840 -16.0317 -0.0000 -0.0000 -0.9583 -18.1665 0.0055 -3.2147 -0.0000 0.0000 -0.0000 0.0000 0.0000 0.0000 6.3937 -0.0569 -34.4567 5.4559 0.0000 0.0000 -6.4532 0.5423 2.3185 -3.3914 0.0000 -0.0000 3.4019 4.5573 29.1840 10.2320 0.0000 0.0000 -3.8735 -6.0622 -9.2464 -10.9861 0.0000 -0.0000
 -17.1844 -19.5773 36.1677 3.6854 -5.0545 93.4300 1.5083 3.2022 0.4102 -0.5806 0.3868 0.0045 5.8492 0.2713 -1.6458 2.5364 0.0625 -0.6745 9.6713 -0.0056 2.5753 0.3446 2.8565 5.8416 -0.1296 6.3268 -3.7195 -4.7243 -16.8356 8.2732 0.0000 0.0000 0.5354 -21.4840 10.3623 1.8452 0.0000 -0.0000 0.0000 -0.0000 -0.0000 0.0000 -0.9411 -9.4056 3.4582 17.2558 6.9808 -16.0497 -0.0000 -0.0000 -0.9524 -18.1560 -0.0064 -3.2141 0.0000 -0.0000 0.0000 0.0000 -0.0000 0.0000 6.3774 -0.0438 -34.4319 5.4725 0.0000 0.0000 -6.4578 0.5530 2.3034 -3.3871 0.0000 -0.0000 3.3968 4.5762 29.1249 10.2180 0.0000 0.0000 -3.8566 -6.0745 -9.1773 -10.9921 0.0000 -0.0000
